<svg width="105" height="105" viewBox="0 0 105 105" fill="none" xmlns="http://www.w3.org/2000/svg">
<path d="M52.5 6.5625C42.9307 6.57336 33.7564 10.3796 26.9899 17.1461C20.2233 23.9126 16.4171 33.0869 16.4062 42.6562C16.4062 52.2662 20.2617 62.9262 26.7135 71.1621C31.6682 77.4826 37.5826 81.8262 43.9031 83.9139L39.6416 93.8643C39.4279 94.3632 39.3413 94.9074 39.3895 95.4481C39.4378 95.9887 39.6195 96.509 39.9182 96.9622C40.217 97.4154 40.6235 97.7874 41.1013 98.0449C41.5792 98.3023 42.1134 98.4372 42.6562 98.4375H62.3438C62.8866 98.4372 63.4208 98.3023 63.8987 98.0449C64.3765 97.7874 64.783 97.4154 65.0818 96.9622C65.3805 96.509 65.5622 95.9887 65.6105 95.4481C65.6587 94.9074 65.5721 94.3632 65.3584 93.8643L61.1133 83.9139C67.4297 81.8344 73.3482 77.4826 78.3029 71.1621C84.7383 62.9262 88.5938 52.2662 88.5938 42.6562C88.5829 33.0869 84.7767 23.9126 78.0101 17.1461C71.2436 10.3796 62.0693 6.57336 52.5 6.5625ZM57.3686 91.875H47.6314L50.4779 85.2346C51.1506 85.2838 51.8232 85.3125 52.5 85.3125C53.1768 85.3125 53.8494 85.2838 54.5221 85.2346L57.3686 91.875ZM73.1186 67.1139C67.241 74.6197 59.9197 78.75 52.5 78.75C45.0803 78.75 37.759 74.6197 31.8814 67.1139C26.2992 59.9936 22.9688 50.8594 22.9688 42.6562C22.9688 34.8241 26.0801 27.3127 31.6183 21.7745C37.1564 16.2363 44.6678 13.125 52.5 13.125C60.3322 13.125 67.8436 16.2363 73.3817 21.7745C78.9199 27.3127 82.0312 34.8241 82.0312 42.6562C82.0312 50.8594 78.7008 59.9936 73.1186 67.1139ZM72.7084 42.6111C72.5361 42.6392 72.362 42.6542 72.1875 42.6562C71.4118 42.6552 70.6616 42.3795 70.07 41.8779C69.4783 41.3764 69.0834 40.6814 68.9555 39.9164C68.3488 36.502 66.7085 33.3561 64.2564 30.904C61.8042 28.4518 58.6584 26.8116 55.2439 26.2049C54.8158 26.1373 54.4053 25.9856 54.0361 25.7585C53.6669 25.5314 53.3463 25.2333 53.093 24.8816C52.8396 24.5299 52.6585 24.1315 52.56 23.7094C52.4614 23.2873 52.4476 22.8498 52.5191 22.4223C52.5906 21.9948 52.7461 21.5857 52.9767 21.2186C53.2072 20.8515 53.5082 20.5338 53.8622 20.2837C54.2162 20.0336 54.6163 19.8561 55.0393 19.7616C55.4624 19.667 55.8999 19.6571 56.3268 19.7326C61.0837 20.5767 65.4667 22.8613 68.8829 26.2775C72.2991 29.6937 74.5837 34.0767 75.4277 38.8336C75.4988 39.2589 75.4853 39.694 75.3881 40.114C75.2909 40.5341 75.1118 40.9309 74.8612 41.2817C74.6106 41.6325 74.2932 41.9305 73.9274 42.1586C73.5615 42.3867 73.1542 42.5405 72.7289 42.6111H72.7084Z" fill="white"/>
</svg>
